<svg width="60" height="60" viewBox="0 0 60 60" fill="none" xmlns="http://www.w3.org/2000/svg">
<path d="M55.7145 49.5435C55.7145 54.5577 53.3288 55.7147 50.386 55.7147C47.443 55.7147 45.0573 54.5435 45.0573 49.5435C45.0573 44.5435 47.443 37.572 50.386 37.572C53.3288 37.572 55.7145 44.5292 55.7145 49.5435Z" fill="url(#paint0_radial_4_530)"/>
<path d="M50.3862 37.572C50.2577 37.572 50.1292 37.5862 50.0005 37.615C51.715 38.1435 52.9577 42.1435 50.972 41.9577C50.972 41.9577 52.572 43.5005 51.772 44.5577C51.772 44.5577 53.1292 45.615 52.0577 47.4005C51.172 48.8577 50.3005 48.7435 50.3005 48.7435C50.3005 48.7435 50.4862 50.5292 49.115 51.0577C48.172 51.4292 46.772 52.872 45.9862 53.7435C46.3005 54.2435 46.6862 54.6292 47.1292 54.9292L49.7292 55.715C49.9435 55.7292 50.1577 55.7435 50.3862 55.7435C53.3292 55.7435 55.715 54.572 55.715 49.572C55.715 44.5292 53.3292 37.572 50.3862 37.572Z" fill="url(#paint1_linear_4_530)"/>
<path d="M52.3002 52.2572C49.9144 53.8002 48.1574 52.686 45.7574 53.3002C46.6717 55.186 48.4002 55.7145 50.3859 55.7145C53.3287 55.7145 55.7144 54.543 55.7144 49.543C55.7144 46.486 54.8287 42.686 53.4574 40.2002C54.8859 44.686 55.2144 50.3715 52.3002 52.2572Z" fill="url(#paint2_radial_4_530)"/>
<path d="M14.943 49.5435C14.943 54.5577 12.5573 55.7147 9.61444 55.7147C6.67159 55.7147 4.28589 54.5435 4.28589 49.5435C4.28589 44.5435 6.67159 37.572 9.61444 37.572C12.5573 37.572 14.943 44.5292 14.943 49.5435Z" fill="url(#paint3_radial_4_530)"/>
<path d="M9.61484 37.572C9.48627 37.572 9.35769 37.5862 9.22912 37.615C10.9434 38.1435 12.1863 42.1435 10.2005 41.9577C10.2005 41.9577 11.8005 43.5005 11.0005 44.5577C11.0005 44.5577 12.3577 45.615 11.2863 47.4005C10.4005 48.8577 9.52912 48.7435 9.52912 48.7435C9.52912 48.7435 9.71484 50.5292 8.34342 51.0577C7.40054 51.415 6.00054 52.8577 5.21484 53.7292C5.52912 54.2292 5.91484 54.615 6.35769 54.915L8.95769 55.7005C9.17197 55.715 9.38627 55.7292 9.61484 55.7292C12.5577 55.7292 14.9434 54.5577 14.9434 49.5577C14.9434 44.5292 12.5577 37.572 9.61484 37.572Z" fill="url(#paint4_linear_4_530)"/>
<path d="M11.5142 52.2572C9.12844 53.8002 7.37131 52.686 4.97131 53.3002C5.88559 55.186 7.61416 55.7145 9.59986 55.7145C12.5427 55.7145 14.9284 54.543 14.9284 49.543C14.9284 46.486 14.0427 42.686 12.6713 40.2002C14.0999 44.686 14.4427 50.3715 11.5142 52.2572Z" fill="url(#paint5_radial_4_530)"/>
<path d="M49.157 20.8725L43.4282 19.4439V9.6582H49.157V20.8725Z" fill="url(#paint6_linear_4_530)"/>
<path d="M47.357 12.3011V20.4296L49.1712 20.8868V9.6582H43.4282V10.6154H45.657C46.5997 10.6154 47.357 11.3725 47.357 12.3011Z" fill="url(#paint7_linear_4_530)"/>
<path d="M48.8 25.1712L30 9.41405L11.2 25.1712V55.714H48.8V25.1712Z" fill="white"/>
<path opacity="0.5" d="M48.8 25.1712L30 9.41405L11.2 25.1712V55.714H48.8V25.1712Z" fill="url(#paint8_linear_4_530)"/>
<path d="M33.886 20.0297C33.4432 18.3011 31.8717 17.0154 30.0002 17.0154C28.129 17.0154 26.5575 18.3011 26.1147 20.0297H26.0002V21.0297C26.0002 23.244 27.8002 25.044 30.0147 25.044C32.229 25.044 34.029 23.244 34.029 21.0297V20.0297H33.886Z" fill="url(#paint9_linear_4_530)"/>
<path d="M11.4857 48.2435H48.5143C48.8285 48.2435 49.0858 48.5005 49.0858 48.8148V55.7148H10.9143V48.8148C10.9143 48.5005 11.1715 48.2435 11.4857 48.2435Z" fill="url(#paint10_linear_4_530)"/>
<path d="M49.1 53.5155H10.9143V53.6585H49.1V53.5155Z" fill="url(#paint11_linear_4_530)"/>
<path d="M49.1 50.885H10.9143V51.0277H49.1V50.885Z" fill="url(#paint12_linear_4_530)"/>
<path d="M48.5143 48.2435H11.4857C11.1715 48.2435 10.9143 48.5005 10.9143 48.8148H49.1C49.0858 48.5005 48.8285 48.2435 48.5143 48.2435Z" fill="url(#paint13_linear_4_530)"/>
<path d="M28.2573 29.6998H15.3143V55.614H28.2573V29.6998Z" fill="url(#paint14_linear_4_530)"/>
<path d="M16.4001 30.9005V54.5148H16.5144V30.9005H27.1857V30.7863H16.5144H16.4001V30.9005Z" fill="#643800"/>
<path d="M16.4001 54.5148H27.0715H27.1857V30.7863L27.0715 30.9005V54.4005H16.5144L16.4001 54.5148Z" fill="url(#paint15_linear_4_530)"/>
<path d="M27.0715 54.3997H16.5143V30.8997H27.0715V54.3997Z" fill="url(#paint16_radial_4_530)"/>
<path d="M19.1857 30.8862H18.9429V51.8005H19.1857V30.8862Z" fill="url(#paint17_linear_4_530)"/>
<path d="M21.9146 30.8862H21.6718V51.8005H21.9146V30.8862Z" fill="url(#paint18_linear_4_530)"/>
<path d="M24.6282 30.8862H24.3854V51.8005H24.6282V30.8862Z" fill="url(#paint19_linear_4_530)"/>
<path d="M7.143 24.2292L6.40015 22.7578L11.9858 18.8721V22.5863L7.143 24.2292Z" fill="url(#paint20_linear_4_530)"/>
<path d="M11.9861 20.3139V18.2282L17.9861 14.071V17.771L11.9861 20.3139Z" fill="url(#paint21_linear_4_530)"/>
<path d="M17.9858 15.3286V13.2571L24.0001 9.08571V12.8L17.9858 15.3286Z" fill="url(#paint22_linear_4_530)"/>
<path d="M24.0002 10.5288V8.44303L30.0002 4.2859V7.9859L24.0002 10.5288Z" fill="url(#paint23_linear_4_530)"/>
<path d="M52.8572 24.2292L53.5999 22.7578L48.0284 18.8721V22.5863L52.8572 24.2292Z" fill="url(#paint24_linear_4_530)"/>
<path d="M48.029 20.3139V18.2282L42.0148 14.071V17.771L48.029 20.3139Z" fill="url(#paint25_linear_4_530)"/>
<path d="M42.0145 15.3286V13.2571L36.0145 9.08571V12.8L42.0145 15.3286Z" fill="url(#paint26_linear_4_530)"/>
<path d="M36.0142 10.5288V8.44303L30 4.2859V7.9859L36.0142 10.5288Z" fill="url(#paint27_linear_4_530)"/>
<path d="M30 9.41524L50.5142 26.601L52.8572 24.2295L30 5.08667L7.14294 24.2295L9.48579 26.601L30 9.41524Z" fill="url(#paint28_linear_4_530)"/>
<path d="M30 5.94382L52.3572 24.6724L52.8572 24.2295L30 5.08667L7.14294 24.2295L7.58579 24.6724L30 5.94382Z" fill="url(#paint29_linear_4_530)"/>
<path d="M51.114 25.9865L29.9997 8.30078L8.8855 25.9865L9.4855 26.6008L29.9997 9.41508L50.514 26.6008L51.114 25.9865Z" fill="url(#paint30_linear_4_530)"/>
<path d="M11.2 27.1712L30 11.4283L48.8 27.1712V25.1712L30 9.41405L11.2 25.1712V27.1712Z" fill="url(#paint31_linear_4_530)"/>
<path d="M27.0715 30.901H16.5143V31.5865V55.4722H16.8V31.5865H26.7858V55.358H27.0715V30.901Z" fill="url(#paint32_linear_4_530)"/>
<path d="M28.3717 50.5567H15.2003C15.0431 50.5567 14.9146 50.6852 14.9146 50.8422V55.7137H28.6575V50.8422C28.6575 50.6852 28.5288 50.5567 28.3717 50.5567Z" fill="url(#paint33_linear_4_530)"/>
<path d="M30.0857 55.7147V53.2862C30.0857 53.129 29.9572 53.0005 29.8 53.0005H13.7714C13.6143 53.0005 13.4857 53.129 13.4857 53.2862V55.7147" fill="url(#paint34_linear_4_530)"/>
<path d="M49.0863 7.41455H43.5005C43.2575 7.41455 43.072 7.60028 43.072 7.84313V9.51455C43.072 9.60025 43.129 9.6574 43.2148 9.6574H49.372C49.4575 9.6574 49.5148 9.60025 49.5148 9.51455V7.84313C49.5148 7.61455 49.329 7.41455 49.0863 7.41455Z" fill="url(#paint35_linear_4_530)"/>
<path d="M22.2715 39.4428C22.1858 39.257 22.0001 39.1285 21.7858 39.1285C21.5715 39.1285 21.3858 39.257 21.3001 39.4428C20.6858 39.6428 20.2429 40.2143 20.2429 40.8998C20.2429 41.7428 20.9286 42.4285 21.7715 42.4285C22.6143 42.4285 23.3001 41.7428 23.3001 40.8998C23.3286 40.2143 22.8858 39.6428 22.2715 39.4428ZM21.7858 41.9713C21.1858 41.9713 20.7001 41.4855 20.7001 40.8855C20.7001 40.4428 20.9572 40.0713 21.3286 39.8998C21.4143 40.057 21.5858 40.1713 21.7858 40.1713C21.9858 40.1713 22.1429 40.057 22.2429 39.8998C22.6143 40.0713 22.8715 40.4428 22.8715 40.8855C22.8715 41.4855 22.3858 41.9713 21.7858 41.9713Z" fill="url(#paint36_linear_4_530)"/>
<path d="M21.7861 38.9295C20.9433 38.9295 20.2576 39.6152 20.2576 40.458C20.2576 41.3007 20.9433 41.9865 21.7861 41.9865C22.629 41.9865 23.3147 41.3007 23.3147 40.458C23.329 39.6152 22.6433 38.9295 21.7861 38.9295ZM21.7861 41.5437C21.1861 41.5437 20.7004 41.058 20.7004 40.458C20.7004 39.858 21.1861 39.3722 21.7861 39.3722C22.3861 39.3722 22.8718 39.858 22.8718 40.458C22.8718 41.058 22.3861 41.5437 21.7861 41.5437Z" fill="url(#paint37_radial_4_530)"/>
<path d="M21.7864 39.2005C21.1864 39.2005 20.7007 39.6863 20.7007 40.2863C20.7007 40.3148 20.7007 40.3433 20.7007 40.3718C20.7436 39.8148 21.215 39.3718 21.7864 39.3718C22.3578 39.3718 22.815 39.8148 22.8721 40.3718C22.8721 40.3433 22.8721 40.3148 22.8721 40.2863C22.8721 39.6863 22.3864 39.2005 21.7864 39.2005Z" fill="url(#paint38_linear_4_530)"/>
<path d="M21.7861 41.8297C20.9718 41.8297 20.3004 41.187 20.2576 40.387C20.2576 40.4155 20.2576 40.444 20.2576 40.4727C20.2576 41.3155 20.9433 42.0012 21.7861 42.0012C22.629 42.0012 23.3147 41.3155 23.3147 40.4727C23.3147 40.444 23.3147 40.4155 23.3147 40.387C23.2718 41.187 22.6004 41.8297 21.7861 41.8297Z" fill="url(#paint39_linear_4_530)"/>
<path d="M21.7865 39.7437C22.0784 39.7437 22.3151 39.507 22.3151 39.215C22.3151 38.9232 22.0784 38.6865 21.7865 38.6865C21.4946 38.6865 21.2579 38.9232 21.2579 39.215C21.2579 39.507 21.4946 39.7437 21.7865 39.7437Z" fill="url(#paint40_radial_4_530)"/>
<path d="M30 16.0278C27.7857 16.0278 25.9857 17.8278 25.9857 20.0421C25.9857 22.2564 27.7857 24.0564 30 24.0564C32.2142 24.0564 34.0142 22.2564 34.0142 20.0421C34.0142 17.8278 32.2142 16.0278 30 16.0278ZM30 23.8278C27.9 23.8278 26.2 22.1278 26.2 20.0278C26.2 17.9278 27.9 16.2278 30 16.2278C32.1 16.2278 33.8 17.9278 33.8 20.0278C33.8 22.1278 32.1 23.8278 30 23.8278Z" fill="url(#paint41_linear_4_530)"/>
<path d="M30.0002 16.9568C28.3002 16.9568 26.9287 18.3282 26.9287 20.0282C26.9287 21.7282 28.3002 23.0996 30.0002 23.0996C31.7002 23.0996 33.0715 21.7282 33.0715 20.0282C33.0715 18.3282 31.7002 16.9568 30.0002 16.9568ZM30.0002 22.8996C28.4145 22.8996 27.143 21.6139 27.143 20.0425C27.143 18.4568 28.4287 17.1853 30.0002 17.1853C31.5857 17.1853 32.8572 18.4711 32.8572 20.0425C32.8715 21.6139 31.5857 22.8996 30.0002 22.8996Z" fill="url(#paint42_linear_4_530)"/>
<path d="M30 16.2427C27.9 16.2427 26.2 17.9427 26.2 20.0427C26.2 22.1427 27.9 23.8427 30 23.8427C32.1 23.8427 33.8 22.1427 33.8 20.0427C33.8 17.9427 32.1 16.2427 30 16.2427ZM30 23.0427C28.3427 23.0427 27 21.6998 27 20.0427C27 18.3855 28.3427 17.0427 30 17.0427C31.657 17.0427 33 18.3855 33 20.0427C33 21.6998 31.6715 23.0427 30 23.0427Z" fill="url(#paint43_linear_4_530)"/>
<path d="M29.9999 22.8859C31.5779 22.8859 32.8572 21.6067 32.8572 20.0288C32.8572 18.4508 31.5779 17.1716 29.9999 17.1716C28.4222 17.1716 27.1429 18.4508 27.1429 20.0288C27.1429 21.6067 28.4222 22.8859 29.9999 22.8859Z" fill="url(#paint44_linear_4_530)"/>
<path d="M29.9999 18.1574C31.2999 18.1574 32.3999 18.9574 32.8572 20.0859C32.8572 20.0716 32.8572 20.0574 32.8572 20.0288C32.8572 18.4431 31.5714 17.1716 29.9999 17.1716C28.4142 17.1716 27.1429 18.4574 27.1429 20.0288C27.1429 20.0431 27.1429 20.0574 27.1429 20.0859C27.5999 18.9574 28.7142 18.1574 29.9999 18.1574Z" fill="url(#paint45_linear_4_530)"/>
<path d="M38.5715 36.7575L31.3715 43.9575V44.9575L45.6715 44.9003V43.9003L38.5857 36.7433" fill="url(#paint46_linear_4_530)"/>
<path d="M45.5716 29.7437H31.4716V43.8437H45.5716V29.7437Z" fill="url(#paint47_linear_4_530)"/>
<path d="M45.6718 43.829V29.629H45.5575V43.829H31.3575V43.9432H45.5575H45.6718V43.829Z" fill="url(#paint48_linear_4_530)"/>
<path d="M45.6718 29.629H31.4718H31.3575V43.9432L31.4718 43.829V29.7432H45.5575L45.6718 29.629Z" fill="url(#paint49_linear_4_530)"/>
<path d="M32.5427 30.9285V42.7428H32.657V30.9285H44.4712V30.8143H32.657H32.5427V30.9285Z" fill="#643800"/>
<path d="M32.5427 42.7428H44.357H44.4712V30.8143L44.357 30.9285V42.6285H32.657L32.5427 42.7428Z" fill="#C86F34"/>
<path d="M44.3575 42.629H32.6575V30.929H44.3575V42.629Z" fill="url(#paint50_linear_4_530)"/>
<path d="M44.3573 36.3C42.343 38.6573 39.343 39.1573 37.8288 38.4858C36.7858 38.0285 34.7 37.743 32.6715 38.143V42.6285H44.3715V36.3H44.3573Z" fill="url(#paint51_linear_4_530)"/>
<path d="M44.3575 42.629H32.6575V30.929H44.3575V42.629Z" fill="url(#paint52_radial_4_530)"/>
<path d="M32.6575 30.929V42.629H33.086V31.786C33.086 31.629 33.2145 31.5005 33.3717 31.5005H37.6717C37.7575 31.5005 37.8145 31.5575 37.8145 31.6433V42.629H39.5575V31.6433C39.5575 31.5575 39.6145 31.5005 39.7002 31.5005H43.6432C43.8002 31.5005 43.929 31.629 43.929 31.786V42.629H44.3575V30.929H32.6575Z" fill="url(#paint53_linear_4_530)"/>
<path d="M44.3575 31.6147H32.6575V30.929H44.3575V31.6147Z" fill="url(#paint54_linear_4_530)"/>
<path d="M39.2433 30.901V42.658H38.1433V30.901H39.2433Z" fill="url(#paint55_radial_4_530)"/>
<path d="M39.2433 30.901V31.958H38.1433V30.901H39.2433Z" fill="url(#paint56_linear_4_530)"/>
<path d="M27.157 20.3139C27.2997 21.7568 28.5142 22.8854 29.9997 22.8854C31.5855 22.8854 32.857 21.5996 32.857 20.0282C32.857 19.8711 32.8427 19.714 32.8142 19.5568C30.6997 19.2997 30.2427 22.0711 27.157 20.3139Z" fill="url(#paint57_linear_4_530)"/>
<path d="M27.0715 30.901H16.5143V33.7438H27.0715V30.901Z" fill="url(#paint58_linear_4_530)"/>
<path d="M49.0863 7.41455H48.4005V7.50028C48.4005 8.28598 47.7575 8.92883 46.972 8.92883H43.072V9.51455C43.072 9.60025 43.129 9.6574 43.2148 9.6574H49.372C49.4575 9.6574 49.5148 9.60025 49.5148 9.51455V7.84313C49.5148 7.61455 49.329 7.41455 49.0863 7.41455Z" fill="url(#paint59_linear_4_530)"/>
<defs>
<radialGradient id="paint0_radial_4_530" cx="0" cy="0" r="1" gradientUnits="userSpaceOnUse" gradientTransform="translate(51.8668 42.821) scale(11.4188 11.5855)">
<stop stop-color="#76AB50"/>
<stop offset="1" stop-color="#4B8C1C"/>
</radialGradient>
<linearGradient id="paint1_linear_4_530" x1="53.6585" y1="54.7845" x2="45.6587" y2="38.8567" gradientUnits="userSpaceOnUse">
<stop stop-color="#4B8C1C"/>
<stop offset="1" stop-color="#4B8C1C" stop-opacity="0"/>
</linearGradient>
<radialGradient id="paint2_radial_4_530" cx="0" cy="0" r="1" gradientUnits="userSpaceOnUse" gradientTransform="translate(49.8757 41.8127) rotate(78.4463) scale(13.2579 8.0496)">
<stop stop-color="#76AB50"/>
<stop offset="1" stop-color="#407817"/>
</radialGradient>
<radialGradient id="paint3_radial_4_530" cx="0" cy="0" r="1" gradientUnits="userSpaceOnUse" gradientTransform="translate(11.0907 42.821) scale(11.4188 11.5855)">
<stop stop-color="#76AB50"/>
<stop offset="1" stop-color="#4B8C1C"/>
</radialGradient>
<linearGradient id="paint4_linear_4_530" x1="12.8826" y1="54.7845" x2="4.88269" y2="38.8567" gradientUnits="userSpaceOnUse">
<stop stop-color="#4B8C1C"/>
<stop offset="1" stop-color="#4B8C1C" stop-opacity="0"/>
</linearGradient>
<radialGradient id="paint5_radial_4_530" cx="0" cy="0" r="1" gradientUnits="userSpaceOnUse" gradientTransform="translate(9.09876 41.812) rotate(78.4463) scale(13.2579 8.04962)">
<stop stop-color="#76AB50"/>
<stop offset="1" stop-color="#407817"/>
</radialGradient>
<linearGradient id="paint6_linear_4_530" x1="45.8982" y1="21.8224" x2="46.3745" y2="14.0129" gradientUnits="userSpaceOnUse">
<stop stop-color="#FCCE38"/>
<stop offset="0.1158" stop-color="#F2BC37"/>
<stop offset="0.3627" stop-color="#E09A36"/>
<stop offset="0.5986" stop-color="#D38235"/>
<stop offset="0.8168" stop-color="#CB7434"/>
<stop offset="1" stop-color="#C86F34"/>
</linearGradient>
<linearGradient id="paint7_linear_4_530" x1="46.2977" y1="-24.1573" x2="46.2977" y2="44.1807" gradientUnits="userSpaceOnUse">
<stop stop-color="#3C2200"/>
<stop offset="1" stop-color="#643800" stop-opacity="0"/>
</linearGradient>
<linearGradient id="paint8_linear_4_530" x1="11.1963" y1="32.5675" x2="48.8035" y2="32.5675" gradientUnits="userSpaceOnUse">
<stop stop-color="#FCD2A8"/>
<stop offset="0.1" stop-color="white"/>
<stop offset="0.9" stop-color="white"/>
<stop offset="1" stop-color="#FCD2A8"/>
</linearGradient>
<linearGradient id="paint9_linear_4_530" x1="30.0055" y1="17.7592" x2="30.0055" y2="26.0938" gradientUnits="userSpaceOnUse">
<stop stop-color="#8EA5A8"/>
<stop offset="1" stop-color="#8EA5A8" stop-opacity="0"/>
</linearGradient>
<linearGradient id="paint10_linear_4_530" x1="30" y1="55.548" x2="30" y2="48.079" gradientUnits="userSpaceOnUse">
<stop stop-color="#DEE7E8"/>
<stop offset="1" stop-color="#CFDCDE"/>
</linearGradient>
<linearGradient id="paint11_linear_4_530" x1="30" y1="52.5795" x2="30" y2="55.4372" gradientUnits="userSpaceOnUse">
<stop stop-color="#8EA5A8"/>
<stop offset="1" stop-color="#CFDCDE"/>
</linearGradient>
<linearGradient id="paint12_linear_4_530" x1="30" y1="49.9455" x2="30" y2="52.803" gradientUnits="userSpaceOnUse">
<stop stop-color="#8EA5A8"/>
<stop offset="1" stop-color="#CFDCDE"/>
</linearGradient>
<linearGradient id="paint13_linear_4_530" x1="30" y1="50.9968" x2="30" y2="47.465" gradientUnits="userSpaceOnUse">
<stop stop-color="#8EA5A8"/>
<stop offset="1" stop-color="#CFDCDE"/>
</linearGradient>
<linearGradient id="paint14_linear_4_530" x1="23.9815" y1="67.782" x2="20.7601" y2="30.7713" gradientUnits="userSpaceOnUse">
<stop stop-color="#3C2200"/>
<stop offset="1" stop-color="#A3541E"/>
</linearGradient>
<linearGradient id="paint15_linear_4_530" x1="21.7898" y1="26.0775" x2="21.7898" y2="70.3193" gradientUnits="userSpaceOnUse">
<stop stop-color="#3C2200"/>
<stop offset="1" stop-color="#A3541E"/>
</linearGradient>
<radialGradient id="paint16_radial_4_530" cx="0" cy="0" r="1" gradientUnits="userSpaceOnUse" gradientTransform="translate(22.5549 40.0125) scale(17.1905)">
<stop stop-color="#A3541E"/>
<stop offset="1" stop-color="#643800"/>
</radialGradient>
<linearGradient id="paint17_linear_4_530" x1="18.947" y1="41.3437" x2="19.1934" y2="41.3437" gradientUnits="userSpaceOnUse">
<stop stop-color="#3C2200" stop-opacity="0.5"/>
<stop offset="1" stop-color="#3C2200" stop-opacity="0"/>
</linearGradient>
<linearGradient id="paint18_linear_4_530" x1="21.6667" y1="41.3437" x2="21.9132" y2="41.3437" gradientUnits="userSpaceOnUse">
<stop stop-color="#3C2200" stop-opacity="0.5"/>
<stop offset="1" stop-color="#3C2200" stop-opacity="0"/>
</linearGradient>
<linearGradient id="paint19_linear_4_530" x1="24.3855" y1="41.3437" x2="24.6319" y2="41.3437" gradientUnits="userSpaceOnUse">
<stop stop-color="#3C2200" stop-opacity="0.5"/>
<stop offset="1" stop-color="#3C2200" stop-opacity="0"/>
</linearGradient>
<linearGradient id="paint20_linear_4_530" x1="9.19362" y1="18.8773" x2="9.19362" y2="24.2297" gradientUnits="userSpaceOnUse">
<stop stop-color="#3C2200"/>
<stop offset="1" stop-color="#A3541E"/>
</linearGradient>
<linearGradient id="paint21_linear_4_530" x1="14.9866" y1="14.0702" x2="14.9866" y2="20.308" gradientUnits="userSpaceOnUse">
<stop stop-color="#3C2200"/>
<stop offset="1" stop-color="#A3541E"/>
</linearGradient>
<linearGradient id="paint22_linear_4_530" x1="20.9939" y1="9.09173" x2="20.9939" y2="15.3295" gradientUnits="userSpaceOnUse">
<stop stop-color="#3C2200"/>
<stop offset="1" stop-color="#A3541E"/>
</linearGradient>
<linearGradient id="paint23_linear_4_530" x1="27.0015" y1="4.2859" x2="27.0015" y2="10.5237" gradientUnits="userSpaceOnUse">
<stop stop-color="#3C2200"/>
<stop offset="1" stop-color="#A3541E"/>
</linearGradient>
<linearGradient id="paint24_linear_4_530" x1="50.8167" y1="18.8773" x2="50.8167" y2="24.2297" gradientUnits="userSpaceOnUse">
<stop stop-color="#3C2200"/>
<stop offset="1" stop-color="#A3541E"/>
</linearGradient>
<linearGradient id="paint25_linear_4_530" x1="45.0245" y1="14.0702" x2="45.0245" y2="20.308" gradientUnits="userSpaceOnUse">
<stop stop-color="#3C2200"/>
<stop offset="1" stop-color="#A3541E"/>
</linearGradient>
<linearGradient id="paint26_linear_4_530" x1="39.0165" y1="9.09173" x2="39.0165" y2="15.3295" gradientUnits="userSpaceOnUse">
<stop stop-color="#3C2200"/>
<stop offset="1" stop-color="#A3541E"/>
</linearGradient>
<linearGradient id="paint27_linear_4_530" x1="33.009" y1="4.2859" x2="33.009" y2="10.5237" gradientUnits="userSpaceOnUse">
<stop stop-color="#3C2200"/>
<stop offset="1" stop-color="#A3541E"/>
</linearGradient>
<linearGradient id="paint28_linear_4_530" x1="30" y1="-7.13305" x2="30" y2="24.5515" gradientUnits="userSpaceOnUse">
<stop stop-color="#3C2200"/>
<stop offset="1" stop-color="#A3541E"/>
</linearGradient>
<linearGradient id="paint29_linear_4_530" x1="30" y1="10.7584" x2="30" y2="37.771" gradientUnits="userSpaceOnUse">
<stop stop-color="#3C2200"/>
<stop offset="1" stop-color="#A3541E"/>
</linearGradient>
<linearGradient id="paint30_linear_4_530" x1="29.9998" y1="10.5196" x2="29.9998" y2="33.702" gradientUnits="userSpaceOnUse">
<stop stop-color="#3C2200"/>
<stop offset="1" stop-color="#A3541E"/>
</linearGradient>
<linearGradient id="paint31_linear_4_530" x1="30" y1="29.2745" x2="30" y2="-5.52762" gradientUnits="userSpaceOnUse">
<stop stop-color="#7A4400" stop-opacity="0"/>
<stop offset="1" stop-color="#A3541E"/>
</linearGradient>
<linearGradient id="paint32_linear_4_530" x1="12.5228" y1="13.2536" x2="31.3065" y2="73.9272" gradientUnits="userSpaceOnUse">
<stop stop-color="#3C2200"/>
<stop offset="1" stop-color="#3C2200" stop-opacity="0"/>
</linearGradient>
<linearGradient id="paint33_linear_4_530" x1="21.7899" y1="50.5595" x2="21.7899" y2="55.7137" gradientUnits="userSpaceOnUse">
<stop stop-color="#FCCE38"/>
<stop offset="0.1158" stop-color="#F2BC37"/>
<stop offset="0.3627" stop-color="#E09A36"/>
<stop offset="0.5986" stop-color="#D38235"/>
<stop offset="0.8168" stop-color="#CB7434"/>
<stop offset="1" stop-color="#C86F34"/>
</linearGradient>
<linearGradient id="paint34_linear_4_530" x1="21.7896" y1="52.9945" x2="21.7896" y2="55.7147" gradientUnits="userSpaceOnUse">
<stop stop-color="#FCCE38"/>
<stop offset="0.1158" stop-color="#F2BC37"/>
<stop offset="0.3627" stop-color="#E09A36"/>
<stop offset="0.5986" stop-color="#D38235"/>
<stop offset="0.8168" stop-color="#CB7434"/>
<stop offset="1" stop-color="#C86F34"/>
</linearGradient>
<linearGradient id="paint35_linear_4_530" x1="42.6863" y1="0.223253" x2="49.9673" y2="17.2127" gradientUnits="userSpaceOnUse">
<stop stop-color="#FCCE38"/>
<stop offset="0.1158" stop-color="#F2BC37"/>
<stop offset="0.3627" stop-color="#E09A36"/>
<stop offset="0.5986" stop-color="#D38235"/>
<stop offset="0.8168" stop-color="#CB7434"/>
<stop offset="1" stop-color="#C86F34"/>
</linearGradient>
<linearGradient id="paint36_linear_4_530" x1="21.7897" y1="45.9068" x2="21.7897" y2="37.1418" gradientUnits="userSpaceOnUse">
<stop stop-color="#3C2200"/>
<stop offset="1" stop-color="#3C2200" stop-opacity="0"/>
</linearGradient>
<radialGradient id="paint37_radial_4_530" cx="0" cy="0" r="1" gradientUnits="userSpaceOnUse" gradientTransform="translate(20.6848 39.9062) scale(4.3027 4.3027)">
<stop stop-color="#FCCE38"/>
<stop offset="0.3638" stop-color="#FCCE38"/>
<stop offset="1" stop-color="#C86F34"/>
</radialGradient>
<linearGradient id="paint38_linear_4_530" x1="21.7906" y1="38.056" x2="21.7906" y2="40.2303" gradientUnits="userSpaceOnUse">
<stop stop-color="#FCCE38"/>
<stop offset="0.1158" stop-color="#F2BC37"/>
<stop offset="0.3627" stop-color="#E09A36"/>
<stop offset="0.5986" stop-color="#D38235"/>
<stop offset="0.8168" stop-color="#CB7434"/>
<stop offset="1" stop-color="#C86F34"/>
</linearGradient>
<linearGradient id="paint39_linear_4_530" x1="21.7903" y1="40.0585" x2="21.7903" y2="41.864" gradientUnits="userSpaceOnUse">
<stop stop-color="#FCCE38"/>
<stop offset="0.1158" stop-color="#F2BC37"/>
<stop offset="0.3627" stop-color="#E09A36"/>
<stop offset="0.5986" stop-color="#D38235"/>
<stop offset="0.8168" stop-color="#CB7434"/>
<stop offset="1" stop-color="#C86F34"/>
</linearGradient>
<radialGradient id="paint40_radial_4_530" cx="0" cy="0" r="1" gradientUnits="userSpaceOnUse" gradientTransform="translate(21.8664 39.101) scale(1.25291)">
<stop stop-color="#FCCE38"/>
<stop offset="0.00850916" stop-color="#FCCD38"/>
<stop offset="0.3748" stop-color="#FBB53A"/>
<stop offset="0.7145" stop-color="#FBA73B"/>
<stop offset="1" stop-color="#FBA23B"/>
</radialGradient>
<linearGradient id="paint41_linear_4_530" x1="31.9607" y1="25.9748" x2="26.2337" y2="8.57901" gradientUnits="userSpaceOnUse">
<stop stop-color="#3C2200"/>
<stop offset="1" stop-color="#A3541E"/>
</linearGradient>
<linearGradient id="paint42_linear_4_530" x1="30.0052" y1="16.842" x2="30.0052" y2="27.5562" gradientUnits="userSpaceOnUse">
<stop stop-color="#3C2200"/>
<stop offset="1" stop-color="#A3541E"/>
</linearGradient>
<linearGradient id="paint43_linear_4_530" x1="33.1897" y1="28.3463" x2="29.2762" y2="18.133" gradientUnits="userSpaceOnUse">
<stop stop-color="#3C2200"/>
<stop offset="1" stop-color="#A3541E"/>
</linearGradient>
<linearGradient id="paint44_linear_4_530" x1="32.4494" y1="25.676" x2="27.7962" y2="14.9378" gradientUnits="userSpaceOnUse">
<stop offset="0.1756" stop-color="#D1F2FF"/>
<stop offset="0.5059" stop-color="#80DAFE"/>
</linearGradient>
<linearGradient id="paint45_linear_4_530" x1="30.0052" y1="14.337" x2="30.0052" y2="20.9238" gradientUnits="userSpaceOnUse">
<stop stop-color="#008EE6"/>
<stop offset="1" stop-color="#0099D6" stop-opacity="0"/>
</linearGradient>
<linearGradient id="paint46_linear_4_530" x1="38.5197" y1="42.1608" x2="38.5197" y2="45.441" gradientUnits="userSpaceOnUse">
<stop stop-color="#8EA5A8"/>
<stop offset="1" stop-color="#8EA5A8" stop-opacity="0"/>
</linearGradient>
<linearGradient id="paint47_linear_4_530" x1="41.5346" y1="52.3297" x2="37.7643" y2="32.9055" gradientUnits="userSpaceOnUse">
<stop stop-color="#3C2200"/>
<stop offset="1" stop-color="#A3541E"/>
</linearGradient>
<linearGradient id="paint48_linear_4_530" x1="40.904" y1="42.214" x2="33.3635" y2="25.0807" gradientUnits="userSpaceOnUse">
<stop stop-color="#3C2200"/>
<stop offset="1" stop-color="#A3541E"/>
</linearGradient>
<linearGradient id="paint49_linear_4_530" x1="31.3555" y1="36.7805" x2="45.6698" y2="36.7805" gradientUnits="userSpaceOnUse">
<stop stop-color="#3C2200"/>
<stop offset="1" stop-color="#A3541E"/>
</linearGradient>
<linearGradient id="paint50_linear_4_530" x1="38.5127" y1="36.411" x2="38.5127" y2="30.0403" gradientUnits="userSpaceOnUse">
<stop stop-color="#D1F2FF"/>
<stop offset="0.668" stop-color="#80DAFE"/>
<stop offset="1" stop-color="#0099D6"/>
</linearGradient>
<linearGradient id="paint51_linear_4_530" x1="37.84" y1="26.464" x2="38.556" y2="40.3045" gradientUnits="userSpaceOnUse">
<stop stop-color="#0099D6"/>
<stop offset="1" stop-color="#0099D6" stop-opacity="0"/>
</linearGradient>
<radialGradient id="paint52_radial_4_530" cx="0" cy="0" r="1" gradientUnits="userSpaceOnUse" gradientTransform="translate(36.29 38.2495) scale(8.4132 8.4132)">
<stop stop-color="white" stop-opacity="0.5"/>
<stop offset="0.6419" stop-color="white" stop-opacity="0"/>
</radialGradient>
<linearGradient id="paint53_linear_4_530" x1="38.5127" y1="22.5459" x2="38.5127" y2="45.8905" gradientUnits="userSpaceOnUse">
<stop stop-color="#0099D6"/>
<stop offset="1" stop-color="#0099D6" stop-opacity="0"/>
</linearGradient>
<linearGradient id="paint54_linear_4_530" x1="38.5127" y1="30.9145" x2="38.5127" y2="31.5558" gradientUnits="userSpaceOnUse">
<stop stop-color="#008EE6"/>
<stop offset="1" stop-color="#0099D6" stop-opacity="0"/>
</linearGradient>
<radialGradient id="paint55_radial_4_530" cx="0" cy="0" r="1" gradientUnits="userSpaceOnUse" gradientTransform="translate(38.0483 38.8683) scale(10.5568 10.5568)">
<stop stop-color="#A3541E"/>
<stop offset="1" stop-color="#643800"/>
</radialGradient>
<linearGradient id="paint56_linear_4_530" x1="38.6958" y1="30.8968" x2="38.6958" y2="31.9603" gradientUnits="userSpaceOnUse">
<stop stop-color="#3C2200"/>
<stop offset="1" stop-color="#3C2200" stop-opacity="0"/>
</linearGradient>
<linearGradient id="paint57_linear_4_530" x1="25.5747" y1="10.8887" x2="31.6357" y2="23.5836" gradientUnits="userSpaceOnUse">
<stop stop-color="#0099D6"/>
<stop offset="1" stop-color="#0099D6" stop-opacity="0"/>
</linearGradient>
<linearGradient id="paint58_linear_4_530" x1="21.7897" y1="28.9178" x2="21.7897" y2="33.8005" gradientUnits="userSpaceOnUse">
<stop stop-color="#3C2200"/>
<stop offset="1" stop-color="#3C2200" stop-opacity="0"/>
</linearGradient>
<linearGradient id="paint59_linear_4_530" x1="44.4828" y1="2.32451" x2="46.816" y2="10.4674" gradientUnits="userSpaceOnUse">
<stop stop-color="#FCCE38"/>
<stop offset="0.1158" stop-color="#F2BC37"/>
<stop offset="0.3627" stop-color="#E09A36"/>
<stop offset="0.5986" stop-color="#D38235"/>
<stop offset="0.8168" stop-color="#CB7434"/>
<stop offset="1" stop-color="#C86F34"/>
</linearGradient>
</defs>
</svg>
